<svg width="46" height="56" viewBox="0 0 46 56" fill="none" xmlns="http://www.w3.org/2000/svg">
<g clip-path="url(#clip0_9545_143883)">
<path d="M19.5886 32.1436C21.4198 30.8215 22.5704 28.9096 22.5704 26.7832L22.5704 25.1518H27.2407C27.2407 29.0133 24.1104 32.1436 20.249 32.1436H19.5886Z" fill="#FF5226"/>
<g clip-path="url(#clip1_9545_143883)">
<rect x="7.04932" y="9.5" width="30" height="15" rx="5" transform="rotate(11.7296 7.04932 9.5)" fill="#FF5226"/>
<path d="M12.0482 21.8743C11.637 21.7889 11.2675 21.6339 10.9396 21.4092C10.6197 21.1794 10.357 20.8865 10.1518 20.5307C9.95437 20.1697 9.82736 19.7484 9.77074 19.2669C9.71413 18.7853 9.74748 18.2475 9.87082 17.6535C9.99415 17.0595 10.177 16.5562 10.4192 16.1435C10.6629 15.7243 10.9464 15.3916 11.2699 15.1456C11.5998 14.9009 11.9567 14.7401 12.3403 14.6631C12.7319 14.581 13.1332 14.5826 13.5445 14.668C13.9557 14.7534 14.3252 14.9084 14.6531 15.1331C14.9809 15.3578 15.2442 15.6473 15.443 16.0018C15.6417 16.3563 15.7694 16.7743 15.826 17.2559C15.884 17.7309 15.852 18.2622 15.73 18.8496C15.608 19.4371 15.4252 19.9404 15.1816 20.3597C14.9379 20.7789 14.653 21.1181 14.3269 21.3772C14.0021 21.6297 13.6439 21.7971 13.2524 21.8792C12.8608 21.9613 12.4595 21.9597 12.0482 21.8743ZM12.2641 20.7855C12.486 20.8315 12.7011 20.8285 12.9094 20.7765C13.1177 20.7244 13.3107 20.6147 13.4884 20.4473C13.6675 20.2734 13.8294 20.0347 13.9741 19.7311C14.1189 19.4275 14.2387 19.0473 14.3336 18.5903C14.4284 18.1334 14.4699 17.7369 14.458 17.4008C14.4474 17.0581 14.3939 16.7747 14.2975 16.5504C14.2024 16.3196 14.0698 16.1388 13.8994 16.0082C13.7291 15.8775 13.5362 15.7898 13.3208 15.745C13.1054 15.7003 12.8936 15.704 12.6853 15.7561C12.4836 15.8095 12.2932 15.9232 12.1141 16.0971C11.9363 16.2644 11.7744 16.5032 11.6283 16.8133C11.4836 17.1168 11.3638 17.4971 11.2689 17.954C11.1741 18.4109 11.1326 18.8075 11.1445 19.1436C11.1564 19.4797 11.2099 19.7631 11.305 19.9939C11.4014 20.2182 11.5315 20.395 11.6953 20.5244C11.8591 20.6537 12.0487 20.7407 12.2641 20.7855ZM19.6976 23.4625C19.2864 23.3772 18.9168 23.2221 18.589 22.9975C18.269 22.7676 18.0064 22.4748 17.8011 22.1189C17.6037 21.7579 17.4767 21.3367 17.4201 20.8551C17.3635 20.3735 17.3968 19.8357 17.5202 19.2417C17.6435 18.6478 17.8263 18.1444 18.0686 17.7317C18.3123 17.3125 18.5958 16.9798 18.9192 16.7338C19.2492 16.4891 19.606 16.3283 19.9897 16.2513C20.3812 16.1692 20.7826 16.1709 21.1938 16.2562C21.6051 16.3416 21.9746 16.4966 22.3024 16.7213C22.6303 16.946 22.8936 17.2356 23.0923 17.59C23.2911 17.9445 23.4188 18.3625 23.4754 18.8441C23.5333 19.3191 23.5013 19.8504 23.3794 20.4379C23.2574 21.0253 23.0746 21.5287 22.8309 21.9479C22.5873 22.3671 22.3024 22.7063 21.9762 22.9654C21.6514 23.218 21.2933 23.3853 20.9017 23.4674C20.5102 23.5496 20.1088 23.5479 19.6976 23.4625ZM19.9134 22.3737C20.1354 22.4198 20.3505 22.4168 20.5588 22.3647C20.767 22.3126 20.96 22.2029 21.1378 22.0355C21.3169 21.8616 21.4788 21.6229 21.6235 21.3193C21.7682 21.0157 21.888 20.6355 21.9829 20.1786C22.0778 19.7216 22.1193 19.3251 22.1073 18.989C22.0968 18.6464 22.0433 18.3629 21.9469 18.1386C21.8518 17.9078 21.7191 17.7271 21.5488 17.5964C21.3785 17.4657 21.1856 17.378 20.9702 17.3333C20.7548 17.2885 20.543 17.2922 20.3347 17.3443C20.1329 17.3977 19.9425 17.5114 19.7634 17.6853C19.5857 17.8526 19.4238 18.0914 19.2777 18.4015C19.133 18.7051 19.0131 19.0853 18.9183 19.5422C18.8234 19.9992 18.7819 20.3957 18.7939 20.7318C18.8058 21.0679 18.8593 21.3514 18.9543 21.5822C19.0507 21.8065 19.1809 21.9833 19.3446 22.1126C19.5084 22.2419 19.698 22.329 19.9134 22.3737ZM30.2699 23.0737C30.1859 23.4784 30.0369 23.8186 29.8231 24.0942C29.6158 24.3712 29.3665 24.5883 29.075 24.7457C28.7902 24.9044 28.4763 25.0061 28.1334 25.0506C27.7919 25.0887 27.4514 25.0725 27.112 25.002C26.7203 24.9207 26.3702 24.7867 26.0617 24.6001C25.7597 24.4148 25.5184 24.1673 25.3376 23.8574C25.1582 23.5409 25.0459 23.1636 25.0007 22.7252C24.9569 22.2804 24.9973 21.7577 25.122 21.1572C25.2332 20.6219 25.3995 20.1322 25.6211 19.6879C25.8441 19.2372 26.1201 18.8587 26.4492 18.5526C26.7849 18.2478 27.1735 18.0323 27.615 17.9061C28.0631 17.7812 28.5645 17.7764 29.1194 17.8916C29.4784 17.9661 29.7908 18.0684 30.0565 18.1985C30.3223 18.3286 30.5428 18.4799 30.7181 18.6525L30.4843 19.7785C30.2492 19.5662 30.002 19.3958 29.7428 19.267C29.49 19.1397 29.2364 19.0496 28.9818 18.9967C28.427 18.8815 27.9596 18.9683 27.5796 19.2571C27.2075 19.5407 26.9147 19.9837 26.7011 20.5862C26.9666 20.3894 27.2473 20.2673 27.5431 20.2198C27.8469 20.1671 28.1652 20.1753 28.4981 20.2444C28.7918 20.3054 29.0663 20.4101 29.3215 20.5584C29.5766 20.7067 29.7883 20.9004 29.9565 21.1396C30.1261 21.3723 30.2418 21.6516 30.3034 21.9776C30.3665 22.2971 30.3553 22.6625 30.2699 23.0737ZM27.3454 23.927C27.5086 23.9609 27.668 23.9633 27.8238 23.9344C27.9862 23.9068 28.1343 23.8491 28.2684 23.7612C28.4102 23.6681 28.5314 23.5434 28.632 23.3873C28.7403 23.2259 28.8183 23.031 28.8657 22.8026C28.9118 22.5806 28.9191 22.3813 28.8877 22.2046C28.8577 22.0213 28.798 21.8659 28.7088 21.7384C28.6274 21.6058 28.5203 21.4985 28.3875 21.4164C28.2547 21.3344 28.11 21.2771 27.9534 21.2446C27.7837 21.2093 27.6183 21.2022 27.4573 21.2233C27.2964 21.2443 27.1456 21.2981 27.0051 21.3847C26.8724 21.4661 26.7526 21.5842 26.6456 21.739C26.5464 21.8887 26.4738 22.0744 26.4277 22.2964C26.3211 22.7441 26.3609 23.1098 26.5471 23.3936C26.7333 23.6773 26.9994 23.8552 27.3454 23.927Z" fill="white"/>
</g>
<g clip-path="url(#clip2_9545_143883)">
<path fill-rule="evenodd" clip-rule="evenodd" d="M20.6245 39.3047C20.7272 39.1483 20.8254 38.9883 20.9189 38.8249C20.9242 38.8173 19.1447 36.7554 17.4174 34.7538C15.7892 32.8672 14.2074 31.0342 14.2102 31.026C18.0745 25.1534 17.2711 24.7516 17.2711 24.7516C14.676 23.3337 11.6324 22.9771 8.77991 23.7566C5.9274 24.5362 3.48818 26.3912 1.97493 28.9318C1.49653 29.7345 1.15196 30.5791 0.932662 31.442C0.351713 33.4947 0.355965 35.6865 0.971041 37.7631C1.81707 40.6195 3.75107 43.0293 6.35653 44.4737C8.962 45.918 12.0305 46.2813 14.9012 45.4853C17.7719 44.6893 20.2152 42.7977 21.7048 40.2179L21.7495 40.135L21.857 39.9441L20.6245 39.3047Z" fill="url(#paint0_radial_9545_143883)"/>
<path d="M14.0923 31.2083C12.8985 33.0917 11.4077 35.3385 9.65197 37.8849C12.0118 39.1917 14.5616 40.1213 17.2088 40.64C19.4645 41.0326 21.028 40.7288 21.5485 39.8369C22.069 38.9451 21.4861 37.4774 19.9865 35.8045C18.2641 33.9847 16.277 32.4352 14.0923 31.2083Z" fill="url(#paint1_linear_9545_143883)"/>
<path d="M14.1953 31.0261L13.6006 31.9803C15.6474 33.1357 17.5113 34.5883 19.1315 36.2909C20.605 37.9422 20.9037 38.9161 20.7138 39.2479C20.5239 39.5797 19.3787 40.0258 17.1901 39.6528C14.7406 39.1636 12.3834 38.2917 10.2053 37.069L9.51492 38.0548L9.79904 38.1922C15.0012 40.921 19.9516 41.8189 21.523 40.3793C21.5687 40.3339 21.6144 40.2885 21.6555 40.2409L21.676 40.2341C21.7327 40.1662 21.7836 40.0937 21.828 40.0172C21.8747 39.935 21.9134 39.8486 21.9437 39.7592C22.6279 37.7786 19.3895 34.1213 14.3611 31.1495L14.1953 31.0261Z" fill="#84EEB1"/>
</g>
</g>
<defs>
<radialGradient id="paint0_radial_9545_143883" cx="0" cy="0" r="1" gradientUnits="userSpaceOnUse" gradientTransform="translate(12.1221 24.8338) rotate(-18.2642) scale(48.8283 35.0805)">
<stop stop-color="#48F56D"/>
<stop offset="0.09" stop-color="#43EA68"/>
<stop offset="0.25" stop-color="#37CB5A"/>
<stop offset="0.47" stop-color="#239A44"/>
<stop offset="0.73" stop-color="#085625"/>
<stop offset="0.8" stop-color="#00421C"/>
</radialGradient>
<linearGradient id="paint1_linear_9545_143883" x1="20.7817" y1="48.5378" x2="7.31968" y2="21.183" gradientUnits="userSpaceOnUse">
<stop offset="0.1" stop-color="#FF8475"/>
<stop offset="0.37" stop-color="#E84E43"/>
<stop offset="0.6" stop-color="#D6261F"/>
<stop offset="0.79" stop-color="#CC0E08"/>
<stop offset="0.9" stop-color="#C80500"/>
</linearGradient>
<clipPath id="clip0_9545_143883">
<rect width="36" height="36" fill="white" transform="translate(0 10)"/>
</clipPath>
<clipPath id="clip1_9545_143883">
<rect x="7.04932" y="9.5" width="30" height="15" rx="5" transform="rotate(11.7296 7.04932 9.5)" fill="white"/>
</clipPath>
<clipPath id="clip2_9545_143883">
<rect width="22.6029" height="22.6029" fill="white" transform="translate(-2.55518 27.4814) rotate(-18.2642)"/>
</clipPath>
</defs>
</svg>
